<svg width="24" height="24" viewBox="0 0 24 24" fill="none" xmlns="http://www.w3.org/2000/svg">
<path d="M12 2C9.51472 2 7.5 4.01472 7.5 6.5C7.5 8.98528 9.51472 11 12 11C14.4853 11 16.5 8.98528 16.5 6.5C16.5 4.01472 14.4853 2 12 2Z" fill="black"/>
<path d="M18 14C18.5523 14 19 14.4477 19 15V17H21C21.5523 17 22 17.4477 22 18C22 18.5523 21.5523 19 21 19H19V21C19 21.5523 18.5523 22 18 22C17.4477 22 17 21.5523 17 21V19H15C14.4477 19 14 18.5523 14 18C14 17.4477 14.4477 17 15 17H17V15C17 14.4477 17.4477 14 18 14Z" fill="black"/>
<path d="M3.69691 18.6964C4.55378 14.8837 7.70183 12 12.001 12C13.4328 12 14.7368 12.3198 15.8711 12.8873C15.3332 13.4295 15.001 14.1759 15.001 15C13.3441 15 12.001 16.3431 12.001 18C12.001 19.6569 13.3441 21 15.001 21H5.59944C4.46429 21 3.40713 19.9858 3.69691 18.6964Z" fill="black"/>
</svg>
