<svg width="24" height="24" viewBox="0 0 24 24" fill="none" xmlns="http://www.w3.org/2000/svg">
<path d="M21 7.16146C21 6.63432 21 6.17954 20.9694 5.80497C20.9371 5.40963 20.8658 5.01641 20.673 4.63803C20.3854 4.07354 19.9265 3.6146 19.362 3.32698C18.9836 3.13419 18.5904 3.06287 18.195 3.03057C17.8205 2.99997 17.3657 2.99998 16.8386 3L16.3301 3L16.3301 21L16.8386 21C17.3657 21 17.8205 21 18.195 20.9694C18.5904 20.9371 18.9836 20.8658 19.362 20.673C19.9265 20.3854 20.3854 19.9265 20.673 19.362C20.8658 18.9836 20.9371 18.5904 20.9694 18.195C21 17.8205 21 17.3657 21 16.8386L21 7.16146Z" fill="currentColor"/>
<path d="M9.6699 3L14.3301 3L14.3301 21L9.6699 21L9.6699 3Z" fill="currentColor"/>
<path d="M7.66992 3L7.16152 3C6.63432 2.99998 6.17952 2.99997 5.80502 3.03057C5.40962 3.06287 5.01642 3.13419 4.63802 3.32698C4.07352 3.6146 3.61462 4.07354 3.32702 4.63803C3.13422 5.01641 3.06292 5.40963 3.03062 5.80497C3.00002 6.17954 3.00002 6.6343 3.00002 7.16144L3.00002 16.8386C3.00002 17.3657 3.00002 17.8205 3.03062 18.195C3.06292 18.5904 3.13422 18.9836 3.32702 19.362C3.61462 19.9265 4.07352 20.3854 4.63802 20.673C5.01642 20.8658 5.40962 20.9371 5.80502 20.9694C6.17952 21 6.63432 21 7.16142 21L7.66992 21L7.66992 3Z" fill="currentColor"/>
</svg>
