<svg width="24" height="24" viewBox="0 0 24 24" fill="none" xmlns="http://www.w3.org/2000/svg">
<path d="M16.8 19L7.2 19L7.2 21L16.8 21L16.8 19ZM5 16.8L5 7.2L3 7.2L3 16.8L5 16.8ZM7.2 5L16.8 5L16.8 3L7.2 3L7.2 5ZM19 7.2L19 16.8L21 16.8L21 7.2L19 7.2ZM5 7.2C5 6.62345 5.0008 6.25117 5.0239 5.96784C5.0461 5.69617 5.0838 5.59545 5.109 5.54601L3.327 4.63803C3.1342 5.01641 3.0629 5.40963 3.0306 5.80497C2.9992 6.18864 3 6.65645 3 7.2L5 7.2ZM7.2 3C6.6565 3 6.1886 2.99922 5.805 3.03057C5.4096 3.06287 5.0164 3.13419 4.638 3.32698L5.546 5.10899C5.5955 5.0838 5.6962 5.04612 5.9678 5.02393C6.2512 5.00078 6.6235 5 7.2 5L7.2 3ZM5.109 5.54601C5.2049 5.35785 5.3579 5.20487 5.546 5.10899L4.638 3.32698C4.0735 3.6146 3.6146 4.07354 3.327 4.63803L5.109 5.54601ZM7.2 19C6.6235 19 6.2512 18.9992 5.9678 18.9761C5.6962 18.9539 5.5955 18.9162 5.546 18.891L4.638 20.673C5.0164 20.8658 5.4096 20.9371 5.805 20.9694C6.1886 21.0008 6.6565 21 7.2 21L7.2 19ZM3 16.8C3 17.3436 2.9992 17.8114 3.0306 18.195C3.0629 18.5904 3.1342 18.9836 3.327 19.362L5.109 18.454C5.0838 18.4045 5.0461 18.3038 5.0239 18.0322C5.0008 17.7488 5 17.3766 5 16.8L3 16.8ZM5.546 18.891C5.3579 18.7951 5.2049 18.6422 5.109 18.454L3.327 19.362C3.6146 19.9265 4.0735 20.3854 4.638 20.673L5.546 18.891ZM16.8 21C17.3435 21 17.8114 21.0008 18.195 20.9694C18.5904 20.9371 18.9836 20.8658 19.362 20.673L18.454 18.891C18.4045 18.9162 18.3038 18.9539 18.0322 18.9761C17.7488 18.9992 17.3765 19 16.8 19L16.8 21ZM19 16.8C19 17.3766 18.9992 17.7488 18.9761 18.0322C18.9539 18.3038 18.9162 18.4045 18.891 18.454L20.673 19.362C20.8658 18.9836 20.9371 18.5904 20.9694 18.195C21.0008 17.8114 21 17.3436 21 16.8L19 16.8ZM19.362 20.673C19.9265 20.3854 20.3854 19.9265 20.673 19.362L18.891 18.454C18.7951 18.6422 18.6421 18.7951 18.454 18.891L19.362 20.673ZM16.8 5C17.3765 5 17.7488 5.00078 18.0322 5.02393C18.3038 5.04612 18.4045 5.0838 18.454 5.10899L19.362 3.32698C18.9836 3.13419 18.5904 3.06287 18.195 3.03057C17.8114 2.99922 17.3435 3 16.8 3L16.8 5ZM21 7.2C21 6.65645 21.0008 6.18864 20.9694 5.80497C20.9371 5.40963 20.8658 5.01641 20.673 4.63803L18.891 5.54601C18.9162 5.59545 18.9539 5.69617 18.9761 5.96784C18.9992 6.25117 19 6.62345 19 7.2L21 7.2ZM18.454 5.10899C18.6421 5.20487 18.7951 5.35785 18.891 5.54601L20.673 4.63803C20.3854 4.07354 19.9265 3.6146 19.362 3.32698L18.454 5.10899Z" fill="currentColor"/>
<path d="M8.33008 20L8.33008 21L10.3301 21L10.3301 20L8.33008 20ZM10.3301 4L10.3301 3L8.33008 3L8.33008 4L10.3301 4ZM8.33008 4L8.33008 20L10.3301 20L10.3301 4L8.33008 4Z" fill="currentColor"/>
<path d="M13.6699 20L13.6699 21L15.6699 21L15.6699 20L13.6699 20ZM15.6699 4L15.6699 3L13.6699 3L13.6699 4L15.6699 4ZM13.6699 4L13.6699 20L15.6699 20L15.6699 4L13.6699 4Z" fill="currentColor"/>
</svg>
