<svg width="24" height="24" viewBox="0 0 24 24" fill="none" xmlns="http://www.w3.org/2000/svg">
<path d="M20 9H4M20 9V7C20 5.89543 19.1046 5 18 5H6C4.89543 5 4 5.89543 4 7V9M20 9V10M4 9V18C4 19.1046 4.89543 20 6 20H11" stroke="black" stroke-width="2" stroke-linecap="round" stroke-linejoin="round"/>
<path d="M8 5V3" stroke="black" stroke-width="2" stroke-linecap="round" stroke-linejoin="round"/>
<path d="M16 5V3" stroke="black" stroke-width="2" stroke-linecap="round" stroke-linejoin="round"/>
<path d="M21 16.9999L17.5858 20.4141C17.2107 20.7892 16.702 20.9999 16.1716 20.9999H15V19.8284C15 19.2979 15.2107 18.7892 15.5858 18.4141L19 14.9999C19.5523 14.4476 20.4477 14.4476 21 14.9999C21.5523 15.5522 21.5523 16.4476 21 16.9999Z" stroke="black" stroke-width="2" stroke-linecap="round" stroke-linejoin="round"/>
</svg>
