<svg width="24" height="24" viewBox="0 0 24 24" fill="none" xmlns="http://www.w3.org/2000/svg">
<path d="M9 3C9 2.44772 8.55228 2 8 2C7.44772 2 7 2.44772 7 3V4H6C4.34315 4 3 5.34315 3 7V18C3 19.6569 4.34315 21 6 21H11C11.5523 21 12 20.5523 12 20C12 19.4477 11.5523 19 11 19H6C5.44772 19 5 18.5523 5 18V10H19C19 10.5523 19.4477 11 20 11C20.5523 11 21 10.5523 21 10V7C21 5.34315 19.6569 4 18 4H17V3C17 2.44772 16.5523 2 16 2C15.4477 2 15 2.44772 15 3V4H9V3Z" fill="black"/>
<path d="M21.7071 14.2928C20.7643 13.35 19.2357 13.35 18.2929 14.2928L14.8787 17.707C14.3161 18.2696 14 19.0327 14 19.8283V20.9999C14 21.5522 14.4477 21.9999 15 21.9999H16.1716C16.9672 21.9999 17.7303 21.6838 18.2929 21.1212L21.7071 17.707C22.6499 16.7642 22.6499 15.2356 21.7071 14.2928Z" fill="black"/>
</svg>
