<svg width="10" height="10" viewBox="0 0 10 10" fill="none" xmlns="http://www.w3.org/2000/svg">
<path fill-rule="evenodd" clip-rule="evenodd" d="M10 5C10 7.76142 7.76142 10 5 10C2.23858 10 0 7.76142 0 5C0 2.23858 2.23858 0 5 0C7.76142 0 10 2.23858 10 5ZM6.68505 4.41232C6.86256 4.23481 6.86256 3.94701 6.68505 3.7695C6.50754 3.59199 6.21974 3.59199 6.04222 3.7695L4.54545 5.26627L3.95778 4.67859C3.78026 4.50108 3.49246 4.50108 3.31495 4.67859C3.13744 4.8561 3.13744 5.1439 3.31495 5.32141L4.22404 6.2305C4.40155 6.40801 4.68936 6.40801 4.86687 6.2305L6.68505 4.41232Z" fill="#CCCAC6"/>
</svg>
