<svg width="10" height="10" viewBox="0 0 10 10" fill="none" xmlns="http://www.w3.org/2000/svg">
<path fill-rule="evenodd" clip-rule="evenodd" d="M5 10C7.76143 10 10 7.76143 10 5C10 2.2386 7.76142 1.95702e-07 5 4.37114e-07C2.2386 6.78523e-07 -6.78523e-07 2.2386 -4.37114e-07 5C-1.95702e-07 7.76143 2.2386 10 5 10ZM5.85355 3.14645C5.6583 2.9512 5.3417 2.9512 5.14645 3.14645C4.9512 3.3417 4.9512 3.6583 5.14645 3.85355L5.7929 4.5L3 4.5C2.72385 4.5 2.5 4.72385 2.5 5C2.5 5.27615 2.72385 5.5 3 5.5L5.7929 5.5L5.14645 6.14645C4.9512 6.34171 4.9512 6.65829 5.14645 6.85356C5.3417 7.04882 5.6583 7.04882 5.85355 6.85356L7.35355 5.35355C7.54881 5.1583 7.54881 4.8417 7.35355 4.64645L5.85355 3.14645Z" fill="#8F8C85"/>
</svg>
