<svg width="24" height="24" viewBox="0 0 24 24" fill="none" xmlns="http://www.w3.org/2000/svg">
<path fill-rule="evenodd" clip-rule="evenodd" d="M2 7C2 5.34315 3.34315 4 5 4H19C20.6569 4 22 5.34315 22 7V17C22 18.6569 20.6569 20 19 20H5C3.34315 20 2 18.6569 2 17V7ZM6 15C6 14.4477 6.44772 14 7 14H12C12.5523 14 13 14.4477 13 15C13 15.5523 12.5523 16 12 16H7C6.44772 16 6 15.5523 6 15ZM15 15C15 14.4477 15.4477 14 16 14H17C17.5523 14 18 14.4477 18 15C18 15.5523 17.5523 16 17 16H16C15.4477 16 15 15.5523 15 15ZM7 10C6.44772 10 6 10.4477 6 11C6 11.5523 6.44772 12 7 12H8C8.55228 12 9 11.5523 9 11C9 10.4477 8.55228 10 8 10H7ZM12 10C11.4477 10 11 10.4477 11 11C11 11.5523 11.4477 12 12 12H17C17.5523 12 18 11.5523 18 11C18 10.4477 17.5523 10 17 10H12Z" fill="black"/>
</svg>
