<svg width="24" height="24" viewBox="0 0 24 24" fill="none" xmlns="http://www.w3.org/2000/svg">
<path d="M11.4773 15.8909C9.52371 15.3405 7.84455 14.9424 6 15.6503V20.9994C6 21.5517 5.55228 21.9994 5 21.9994C4.44772 21.9994 4 21.5517 4 20.9994V4.61869C4 3.87775 4.42123 3.12473 5.19798 2.81655C7.67948 1.83202 9.90744 2.37563 11.8383 2.91497C11.9681 2.9512 12.0962 2.98728 12.2229 3.02296C14.0527 3.53808 15.587 3.97003 17.2559 3.57806C17.8998 3.42684 18.5623 3.56845 19.0716 3.91111C19.5898 4.25973 20 4.85781 20 5.61435V14.3802C20 15.1212 19.5788 15.8742 18.802 16.1823C16.1736 17.2252 13.8066 16.5526 11.7885 15.9791C11.684 15.9494 11.5799 15.9198 11.4773 15.8909Z" fill="black"/>
</svg>
