<svg width="24" height="24" viewBox="0 0 24 24" fill="none" xmlns="http://www.w3.org/2000/svg">
<rect width="16" height="16" rx="4" fill="#0F0E0D"/>
<g clip-path="url(#clip0_5505_195305)">
<path d="M12.75 12.25H8.5L9.75 11.0001V8.75003H6.25V11.0001L7.5 12.25H3.25L4.5 11.0001V5.00005L3.25 3.75H7.5L6.25 5.00005V7.25003H9.75V5.00005L8.5 3.75H12.75L11.5 5.00005V11.0001L12.75 12.25Z" fill="#FAFAF9"/>
</g>
<rect x="8.25" y="8.25" width="15.5" height="15.5" rx="3.75" fill="white"/>
<rect x="8.25" y="8.25" width="15.5" height="15.5" rx="3.75" stroke="#ECEBE9" stroke-width="0.5"/>
<path d="M22.094 16.1365C22.094 15.711 22.0558 15.3019 21.9849 14.9092H16.334V17.2328H19.5631C19.4213 17.9801 18.9958 18.6128 18.3576 19.0383V20.5492H20.3049C21.4394 19.5019 22.094 17.9637 22.094 16.1365Z" fill="#4285F4"/>
<path d="M16.3349 22.0001C17.9549 22.0001 19.3131 21.4655 20.3058 20.5491L18.3585 19.0382C17.824 19.3982 17.1422 19.6164 16.3349 19.6164C14.7749 19.6164 13.4494 18.5637 12.9749 17.1455H10.9785V18.6946C11.9658 20.6528 13.9894 22.0001 16.3349 22.0001Z" fill="#34A853"/>
<path d="M12.974 17.1401C12.854 16.7801 12.7831 16.3983 12.7831 16.0001C12.7831 15.6019 12.854 15.2201 12.974 14.8601V13.311H10.9776C10.5685 14.1183 10.334 15.0292 10.334 16.0001C10.334 16.971 10.5685 17.8819 10.9776 18.6892L12.5322 17.4783L12.974 17.1401Z" fill="#FBBC05"/>
<path d="M16.3349 12.3891C17.2185 12.3891 18.004 12.6945 18.6312 13.2836L20.3494 11.5655C19.3076 10.5945 17.9549 10 16.3349 10C13.9894 10 11.9658 11.3473 10.9785 13.3109L12.9749 14.86C13.4494 13.4418 14.7749 12.3891 16.3349 12.3891Z" fill="#EA4335"/>
<defs>
<clipPath id="clip0_5505_195305">
<rect width="9.5" height="8.5" fill="white" transform="translate(3.25 3.75)"/>
</clipPath>
</defs>
</svg>
