<svg width="24" height="24" viewBox="0 0 24 24" fill="none" xmlns="http://www.w3.org/2000/svg">
<rect width="16" height="16" rx="4" fill="#0F0E0D"/>
<g clip-path="url(#clip0_5505_195326)">
<path d="M12.75 12.25H8.5L9.75 11.0001V8.75003H6.25V11.0001L7.5 12.25H3.25L4.5 11.0001V5.00005L3.25 3.75H7.5L6.25 5.00005V7.25003H9.75V5.00005L8.5 3.75H12.75L11.5 5.00005V11.0001L12.75 12.25Z" fill="#FAFAF9"/>
</g>
<path d="M12 8.25H20C22.0711 8.25 23.75 9.92893 23.75 12V20C23.75 22.0711 22.0711 23.75 20 23.75H12C9.92893 23.75 8.25 22.0711 8.25 20V12C8.25 9.92893 9.92893 8.25 12 8.25Z" fill="white"/>
<path d="M12 8.25H20C22.0711 8.25 23.75 9.92893 23.75 12V20C23.75 22.0711 22.0711 23.75 20 23.75H12C9.92893 23.75 8.25 22.0711 8.25 20V12C8.25 9.92893 9.92893 8.25 12 8.25Z" stroke="#ECEBE9" stroke-width="0.5"/>
<path d="M20.5 18V20.5M20.5 20.5H18M20.5 20.5L17.5 17.5M20.5 14V11.5M20.5 11.5H18M20.5 11.5L16.586 15.414C16.3977 15.6024 16.1737 15.7512 15.9271 15.8519C15.6805 15.9525 15.4163 16.0029 15.15 16H11" stroke="black" stroke-linecap="round" stroke-linejoin="round"/>
<defs>
<clipPath id="clip0_5505_195326">
<rect width="9.5" height="8.5" fill="white" transform="translate(3.25 3.75)"/>
</clipPath>
</defs>
</svg>
