<svg width="24" height="24" viewBox="0 0 24 24" fill="none" xmlns="http://www.w3.org/2000/svg">
<path d="M13.9755 2.39998C12.8444 1.41029 11.1556 1.41029 10.0245 2.39998L4.02449 7.64998C3.37344 8.21965 3 9.04262 3 9.90771V18.0001C3 19.657 4.34315 21.0001 6 21.0001H8C9.10457 21.0001 10 20.1047 10 19.0001V16.0001C10 14.8956 10.8954 14.0001 12 14.0001C13.1046 14.0001 14 14.8956 14 16.0001V19.0001C14 20.1047 14.8954 21.0001 16 21.0001H18C19.6569 21.0001 21 19.657 21 18.0001V9.90771C21 9.04262 20.6266 8.21965 19.9755 7.64998L13.9755 2.39998Z" fill="currentColor"/>
</svg>
