<svg width="24" height="24" viewBox="0 0 24 24" fill="none" xmlns="http://www.w3.org/2000/svg">
<path d="M20 18.0002V9.90772C20 9.33099 19.751 8.78234 19.317 8.40256L13.317 3.15256C12.563 2.49277 11.437 2.49277 10.683 3.15256L4.68299 8.40256C4.24896 8.78234 4 9.33099 4 9.90772V18.0002C4 19.1048 4.89543 20.0002 6 20.0002H9C9.55228 20.0002 10 19.5525 10 19.0002V16.0002C10 14.8956 10.8954 14.0002 12 14.0002C13.1046 14.0002 14 14.8956 14 16.0002V19.0002C14 19.5525 14.4477 20.0002 15 20.0002H18C19.1046 20.0002 20 19.1048 20 18.0002Z" stroke="currentColor" stroke-width="2" stroke-linejoin="round"/>
</svg>
