<svg width="24" height="24" viewBox="0 0 24 24" fill="none" xmlns="http://www.w3.org/2000/svg">
<path d="M3 12H7.5C8.12951 12 8.72229 12.2964 9.1 12.8L9.4 13.2C9.77771 13.7036 10.3705 14 11 14H13C13.6295 14 14.2223 13.7036 14.6 13.2L14.9 12.8C15.2777 12.2964 15.8705 12 16.5 12H21M21.7365 11.5389L18.5758 6.00772C18.2198 5.38457 17.5571 5 16.8394 5H7.16065C6.44293 5 5.78024 5.38457 5.42416 6.00772L2.26351 11.5389C2.09083 11.841 2 12.1831 2 12.5311V17C2 18.1046 2.89543 19 4 19H20C21.1046 19 22 18.1046 22 17V12.5311C22 12.1831 21.9092 11.841 21.7365 11.5389Z" stroke="currentColor" stroke-width="2" stroke-linecap="round" stroke-linejoin="round"/>
</svg>
