<svg width="24" height="24" viewBox="0 0 24 24" fill="none" xmlns="http://www.w3.org/2000/svg">
<path d="M7.12842 4.95695C8.29991 3.78563 10.1991 3.78572 11.3706 4.95695L16.2925 9.87883C17.4635 11.0504 17.4637 12.9496 16.2925 14.121L11.3706 19.0429C10.1992 20.2141 8.29996 20.2139 7.12842 19.0429L2.20654 14.121C1.03534 12.9495 1.0353 11.0503 2.20654 9.87883L7.12842 4.95695Z" fill="black"/>
<path d="M12.999 4.64055C14.1711 3.79731 15.8147 3.90213 16.8691 4.95598L21.791 9.87785C22.9622 11.0493 22.962 12.9485 21.791 14.12L16.8691 19.0419C15.8146 20.096 14.1712 20.201 12.999 19.3573C13.1289 19.2638 13.2542 19.1587 13.3711 19.0419L18.293 14.12C19.4635 12.9486 19.4637 11.0492 18.293 9.87785L13.3711 4.95598C13.2541 4.83897 13.1291 4.73418 12.999 4.64055Z" fill="black"/>
</svg>
