<svg width="24" height="24" viewBox="0 0 24 24" fill="none" xmlns="http://www.w3.org/2000/svg">
<path d="M2.91391 10.5858L7.83548 5.66421C8.61652 4.88317 9.88286 4.88317 10.6639 5.66422L15.5855 10.5858C16.3665 11.3668 16.3665 12.6332 15.5855 13.4142L10.6639 18.3358C9.88285 19.1168 8.61652 19.1168 7.83547 18.3358L2.9139 13.4142C2.13286 12.6332 2.13286 11.3668 2.91391 10.5858Z" stroke="black" stroke-width="2" stroke-linejoin="round"/>
<path d="M12 7L13.3358 5.66421C14.1168 4.88316 15.3832 4.88317 16.1642 5.66422L21.0858 10.5858C21.8668 11.3668 21.8668 12.6332 21.0858 13.4142L16.1642 18.3358C15.3832 19.1168 14.1168 19.1168 13.3358 18.3358L12 17" stroke="black" stroke-width="2" stroke-linejoin="round"/>
</svg>
