<svg width="24" height="24" viewBox="0 0 24 24" fill="none" xmlns="http://www.w3.org/2000/svg">
<path d="M12.9999 3C12.9999 2.44772 12.5522 2 11.9999 2C11.4477 2 10.9999 2.44772 10.9999 3V4H10.4721C10.0063 4 9.547 4.10844 9.13043 4.31672L7.97502 4.89443C7.83616 4.96385 7.68305 5 7.5278 5H2.99994C2.44765 5 1.99994 5.44772 1.99994 6C1.99994 6.55228 2.44765 7 2.99994 7H4.11251L2.07169 13.1225C1.6442 14.405 2.11287 16.1354 3.71902 16.6152C4.91216 16.9716 6.08772 16.9716 7.28086 16.6152C8.88701 16.1354 9.35568 14.4049 8.92818 13.1225L6.88737 7H7.5278C7.99354 7 8.45288 6.89156 8.86944 6.68328L10.0249 6.10557C10.1637 6.03615 10.3168 6 10.4721 6H10.9999V19H6.99994C6.44765 19 5.99994 19.4477 5.99994 20C5.99994 20.5523 6.44765 21 6.99994 21H16.9999C17.5522 21 17.9999 20.5523 17.9999 20C17.9999 19.4477 17.5522 19 16.9999 19H12.9999V6H13.5278C13.683 6 13.8362 6.03615 13.975 6.10557L15.1304 6.68328C15.547 6.89156 16.0063 7 16.4721 7H17.1125L15.0717 13.1225C14.6442 14.405 15.1129 16.1354 16.719 16.6152C17.9122 16.9716 19.0877 16.9716 20.2809 16.6152C21.887 16.1354 22.3557 14.4049 21.9282 13.1225L19.8874 7H20.9999C21.5522 7 21.9999 6.55228 21.9999 6C21.9999 5.44772 21.5522 5 20.9999 5H16.4721C16.3168 5 16.1637 4.96385 16.0249 4.89443L14.8694 4.31672C14.4529 4.10844 13.9935 4 13.5278 4H12.9999V3Z" fill="black"/>
</svg>
