<svg width="24" height="24" viewBox="0 0 24 24" fill="none" xmlns="http://www.w3.org/2000/svg">
<path d="M11.9999 3V20M11.9999 20H6.99986M11.9999 20H16.9999M2.99986 6H7.52772C7.83821 6 8.14444 5.92771 8.42215 5.78885L9.57757 5.21115C9.85528 5.07229 10.1615 5 10.472 5H13.5278C13.8383 5 14.1445 5.07229 14.4222 5.21115L15.5776 5.78885C15.8553 5.92771 16.1615 6 16.472 6H20.9999M5.49986 6L3.0203 13.4387C2.71794 14.3458 3.08905 15.3834 4.00517 15.657C5.01157 15.9577 5.98815 15.9577 6.99455 15.657C7.91067 15.3834 8.28178 14.3457 7.97942 13.4387L5.49986 6ZM18.4999 6L16.0203 13.4387C15.718 14.3458 16.0891 15.3834 17.0052 15.657C18.0116 15.9577 18.9882 15.9577 19.9946 15.657C20.9107 15.3834 21.2818 14.3457 20.9795 13.4387L18.4999 6Z" stroke="black" stroke-width="2" stroke-linecap="round" stroke-linejoin="round"/>
</svg>
