<svg width="24" height="24" viewBox="0 0 24 24" fill="none" xmlns="http://www.w3.org/2000/svg">
<path fill-rule="evenodd" clip-rule="evenodd" d="M8 3C7.17157 3 6.5 3.67157 6.5 4.5V19.5C6.5 20.3284 7.17157 21 8 21H12C12.8284 21 13.5 20.3284 13.5 19.5V4.5C13.5 3.67157 12.8284 3 12 3H8ZM8 7.5C8 7.22386 8.22386 7 8.5 7H11.5C11.7761 7 12 7.22386 12 7.5V8.5C12 8.77614 11.7761 9 11.5 9H8.5C8.22386 9 8 8.77614 8 8.5V7.5ZM8.5 15C8.22386 15 8 15.2239 8 15.5V16.5C8 16.7761 8.22386 17 8.5 17H11.5C11.7761 17 12 16.7761 12 16.5V15.5C12 15.2239 11.7761 15 11.5 15H8.5Z" fill="currentColor"/>
<path d="M3.5 5C2.67157 5 2 5.67157 2 6.5V19.5C2 20.3284 2.67157 21 3.5 21H4C4.82843 21 5.5 20.3284 5.5 19.5V6.5C5.5 5.67157 4.82843 5 4 5H3.5Z" fill="currentColor"/>
<path fill-rule="evenodd" clip-rule="evenodd" d="M13.6635 8.44168C13.4351 7.64535 13.8956 6.81468 14.6919 6.58633L16.6144 6.03506C17.4108 5.80671 18.2414 6.26716 18.4698 7.0635L21.7774 18.5986C22.0058 19.395 21.5453 20.2256 20.749 20.454L18.8265 21.0053C18.0301 21.2336 17.1995 20.7732 16.9711 19.9768L13.6635 8.44168Z" fill="currentColor"/>
</svg>
