<svg width="24" height="24" viewBox="0 0 24 24" fill="none" xmlns="http://www.w3.org/2000/svg">
<path d="M3 11.1716V5C3 3.89543 3.89543 3 5 3H11.1716C11.702 3 12.2107 3.21071 12.5858 3.58579L20.3358 11.3358C21.1168 12.1168 21.1168 13.3832 20.3358 14.1642L14.1642 20.3358C13.3832 21.1168 12.1168 21.1168 11.3358 20.3358L3.58579 12.5858C3.21071 12.2107 3 11.702 3 11.1716Z" stroke="black" stroke-width="2" stroke-linecap="square"/>
<path d="M8 7.5C8 7.77614 7.77614 8 7.5 8C7.22386 8 7 7.77614 7 7.5C7 7.22386 7.22386 7 7.5 7C7.77614 7 8 7.22386 8 7.5Z" stroke="black" stroke-width="2" stroke-linecap="square"/>
<path d="M7.39844 7.5H7.59844" stroke="black" stroke-width="2" stroke-linecap="square"/>
</svg>
