<svg width="24" height="24" viewBox="0 0 24 24" fill="none" xmlns="http://www.w3.org/2000/svg">
<path d="M5.59824 8.16485C6.68595 5.71241 9.14187 4 12 4C15.5571 4 18.4944 6.65314 18.9412 10.0884C21.2527 10.5287 23 12.5603 23 15C23 17.7614 20.7614 20 18 20H13V14.4142L13.7929 15.2071C14.1834 15.5976 14.8166 15.5976 15.2071 15.2071C15.5976 14.8166 15.5976 14.1834 15.2071 13.7929L12.7071 11.2929C12.3166 10.9024 11.6834 10.9024 11.2929 11.2929L8.79289 13.7929C8.40237 14.1834 8.40237 14.8166 8.79289 15.2071C9.18342 15.5976 9.81658 15.5976 10.2071 15.2071L11 14.4142V20H7C3.68629 20 1 17.3137 1 14C1 11.1686 2.96041 8.79651 5.59824 8.16485Z" fill="black"/>
</svg>
