<svg width="24" height="24" viewBox="0 0 24 24" fill="none" xmlns="http://www.w3.org/2000/svg">
<path d="M12 2C9.51472 2 7.5 4.01472 7.5 6.5C7.5 8.98528 9.51472 11 12 11C14.4853 11 16.5 8.98528 16.5 6.5C16.5 4.01472 14.4853 2 12 2Z" fill="black"/>
<path d="M12.0015 12C8.16958 12 5.23686 14.2962 4.04605 17.516C3.70562 18.4365 3.93869 19.3438 4.47985 19.9887C5.00722 20.6172 5.82133 21 6.69832 21H17.3046C18.1816 21 18.9957 20.6172 19.5231 19.9887C20.0643 19.3438 20.2973 18.4365 19.9569 17.516C18.7661 14.2962 15.8334 12 12.0015 12Z" fill="black"/>
</svg>
