<svg width="24" height="24" viewBox="0 0 24 24" fill="none" xmlns="http://www.w3.org/2000/svg">
<path d="M21 12.25V7C21 5.89543 20.1046 5 19 5H5C3.89543 5 3 5.89543 3 7V18C3 19.1046 3.89543 20 5 20H12" stroke="currentColor" stroke-width="2" stroke-linecap="round" stroke-linejoin="round"/>
<path d="M5.875 8.75C5.875 9.23325 6.26675 9.625 6.75 9.625C7.23325 9.625 7.625 9.23325 7.625 8.75C7.625 8.26675 7.23325 7.875 6.75 7.875C6.26675 7.875 5.875 8.26675 5.875 8.75ZM9.375 8.75C9.375 9.23325 9.76675 9.625 10.25 9.625C10.7332 9.625 11.125 9.23325 11.125 8.75C11.125 8.26675 10.7332 7.875 10.25 7.875C9.76675 7.875 9.375 8.26675 9.375 8.75ZM12.875 8.75C12.875 9.23325 13.2668 9.625 13.75 9.625C14.2332 9.625 14.625 9.23325 14.625 8.75C14.625 8.26675 14.2332 7.875 13.75 7.875C13.2668 7.875 12.875 8.26675 12.875 8.75Z" fill="currentColor" stroke="currentColor" stroke-width="0.75" stroke-linecap="square"/>
<path d="M15.5 15.5L22 17.5L19 19L17.5 22L15.5 15.5Z" stroke="currentColor" stroke-width="2" stroke-linecap="square" stroke-linejoin="round"/>
</svg>
