<svg width="24" height="24" viewBox="0 0 24 24" fill="none" xmlns="http://www.w3.org/2000/svg">
<path d="M2 7C2 5.34315 3.34315 4 5 4H19C20.6569 4 22 5.34315 22 7V12.25C22 12.8023 21.5523 13.25 21 13.25C20.4477 13.25 20 12.8023 20 12.25V7C20 6.44772 19.5523 6 19 6H5C4.44772 6 4 6.44772 4 7V18C4 18.5523 4.44772 19 5 19H12C12.5523 19 13 19.4477 13 20C13 20.5523 12.5523 21 12 21H5C3.34315 21 2 19.6569 2 18V7Z" fill="currentColor"/>
<path d="M5.5 8.75C5.5 9.44036 6.05964 10 6.75 10C7.44036 10 8 9.44036 8 8.75C8 8.05964 7.44036 7.5 6.75 7.5C6.05964 7.5 5.5 8.05964 5.5 8.75Z" fill="currentColor"/>
<path d="M9 8.75C9 9.44036 9.55964 10 10.25 10C10.9404 10 11.5 9.44036 11.5 8.75C11.5 8.05964 10.9404 7.5 10.25 7.5C9.55964 7.5 9 8.05964 9 8.75Z" fill="currentColor"/>
<path d="M12.5 8.75C12.5 9.44036 13.0596 10 13.75 10C14.4404 10 15 9.44036 15 8.75C15 8.05964 14.4404 7.5 13.75 7.5C13.0596 7.5 12.5 8.05964 12.5 8.75Z" fill="currentColor"/>
<path d="M15.7941 14.5442C15.4401 14.4353 15.0548 14.531 14.7929 14.7929C14.531 15.0548 14.4353 15.4401 14.5442 15.7941L16.5442 22.2941C16.6644 22.6847 17.0102 22.9629 17.4175 22.9966C17.8249 23.0303 18.2117 22.8128 18.3945 22.4472L19.7454 19.7454L22.4472 18.3945C22.8128 18.2117 23.0303 17.8249 22.9966 17.4175C22.9629 17.0102 22.6847 16.6644 22.2941 16.5442L15.7941 14.5442Z" fill="currentColor"/>
</svg>
