<svg width="92" height="92" viewBox="0 0 92 92" fill="none" xmlns="http://www.w3.org/2000/svg">
<g clip-path="url(#clip0_821_32912)">
<mask id="mask0_821_32912" style="mask-type:luminance" maskUnits="userSpaceOnUse" x="0" y="0" width="92" height="92">
<path d="M92 0H0V92H92V0Z" fill="white"/>
</mask>
<g mask="url(#mask0_821_32912)">
<mask id="mask1_821_32912" style="mask-type:luminance" maskUnits="userSpaceOnUse" x="0" y="0" width="92" height="92">
<path d="M0 0H92V92H0V0Z" fill="white"/>
</mask>
<g mask="url(#mask1_821_32912)">
<g opacity="0.3">
<path d="M41.2779 21.8223L57.6892 9.89911C59.8665 8.31671 61.6322 9.21601 61.6322 11.9078C61.6322 14.5995 59.8665 18.0641 57.6892 19.6465L41.2779 31.5697C39.1006 33.1521 37.335 32.2528 37.335 29.561C37.335 26.8693 39.1006 23.4047 41.2779 21.8223Z" fill="#E4E1DD"/>
</g>
<path d="M6.68074 45.4425L22.9847 33.5975C24.9765 32.15 26.5911 32.9734 26.5911 35.4352C26.5911 37.897 24.9765 41.0664 22.9847 42.5138L6.68074 54.3588C4.68894 55.8063 3.07434 54.9829 3.07434 52.5211C3.07434 50.0594 4.68894 46.89 6.68074 45.4425Z" fill="#F8F8F8"/>
<path d="M6.68074 45.4425L22.9847 33.5975C24.9765 32.15 26.5911 32.9734 26.5911 35.4352C26.5911 37.897 24.9765 41.0664 22.9847 42.5138L6.68074 54.3588C4.68894 55.8063 3.07434 54.9829 3.07434 52.5211C3.07434 50.0594 4.68894 46.89 6.68074 45.4425Z" stroke="#E4E1DD" stroke-width="0.766667"/>
<path d="M22.4239 48.6695L58.767 22.2648C63.5893 18.7611 67.4986 20.7529 67.4986 26.7137C67.4986 32.6746 63.5893 40.3466 58.767 43.8503L22.4239 70.255C17.6016 73.7587 13.6924 71.7669 13.6924 65.8061C13.6924 59.8452 17.6016 52.1732 22.4239 48.6695Z" fill="#E4E1DD"/>
<path d="M33.46 52.5029L68.1563 27.2949C72.5884 24.0749 76.1818 25.9057 76.1818 31.3843C76.1818 36.8629 72.5884 43.9147 68.1563 47.1347L33.46 72.3427C29.0279 75.5627 25.4346 73.7319 25.4346 68.2533C25.4346 62.7747 29.0279 55.7229 33.46 52.5029Z" fill="#F8F8F8"/>
<path d="M33.46 52.5029L68.1563 27.2949C72.5884 24.0749 76.1818 25.9057 76.1818 31.3843C76.1818 36.8629 72.5884 43.9147 68.1563 47.1347L33.46 72.3427C29.0279 75.5627 25.4346 73.7319 25.4346 68.2533C25.4346 62.7747 29.0279 55.7229 33.46 52.5029Z" stroke="#E4E1DD" stroke-width="0.766667"/>
<g opacity="0.09">
<path d="M38.663 55.1638L50.4405 46.607C52.003 45.4716 53.2695 46.1171 53.2695 48.0483C53.2695 49.9796 52.003 52.4659 50.4405 53.6013L38.663 62.1581C37.1005 63.2935 35.834 62.648 35.834 60.7167C35.834 58.7855 37.1005 56.2992 38.663 55.1638Z" fill="#E4E1DD"/>
</g>
<g opacity="0.3">
<path d="M46.0422 60.0726L69.6862 42.8947C72.8234 40.6154 75.3664 41.9111 75.3664 45.7889C75.3664 49.6667 72.8234 54.6577 69.6862 56.937L46.0422 74.1149C42.905 76.3942 40.3619 75.0985 40.3619 71.2207C40.3619 67.3429 42.905 62.3519 46.0422 60.0726Z" fill="#E4E1DD"/>
</g>
<path d="M46.2056 75.0956L56.715 67.4596C58.1096 66.4461 59.2404 67.0226 59.2404 68.7461C59.2404 70.4696 58.1096 72.6883 56.715 73.7018L46.2056 81.3378C44.811 82.3514 43.6802 81.7748 43.6802 80.0514C43.6802 78.3279 44.811 76.1092 46.2056 75.0956Z" fill="#E4E1DD"/>
<path d="M48.6908 65.9186L64.9947 54.0736C66.9865 52.6261 68.6011 53.4495 68.6011 55.9113C68.6011 58.373 66.9865 61.5424 64.9947 62.9899L48.6908 74.8349C46.699 76.2824 45.0844 75.459 45.0844 72.9972C45.0844 70.5354 46.699 67.366 48.6908 65.9186Z" fill="#F8F8F8"/>
<path d="M48.6908 65.9186L64.9947 54.0736C66.9865 52.6261 68.6011 53.4495 68.6011 55.9113C68.6011 58.373 66.9865 61.5424 64.9947 62.9899L48.6908 74.8349C46.699 76.2824 45.0844 75.459 45.0844 72.9972C45.0844 70.5354 46.699 67.366 48.6908 65.9186Z" stroke="#E4E1DD" stroke-width="0.766667"/>
</g>
</g>
</g>
<defs>
<clipPath id="clip0_821_32912">
<rect width="92" height="92" fill="white"/>
</clipPath>
</defs>
</svg>
