<svg width="100" height="92" viewBox="0 0 100 92" fill="none" xmlns="http://www.w3.org/2000/svg">
<g clip-path="url(#clip0_821_31871)">
<path d="M38.5492 14.5818L61.6559 28.0185V54.0518L38.5492 40.9568V14.5818Z" fill="#F1EFEC"/>
<path d="M83.9118 14.9216L61.2318 28.0466L38.8035 14.6716L61.5801 2.17163L83.9118 14.9216Z" fill="white"/>
<path d="M83.9793 14.8311L61.3593 28.0461V54.0527L83.9809 41.1544L83.9793 14.8311Z" fill="#E4E1DD"/>
<path d="M39.4135 14.9733L61.3051 27.7066C61.3301 27.7233 61.3718 27.7233 61.4051 27.7066L83.2968 14.9733L61.4051 2.45661C61.3801 2.43994 61.3385 2.43994 61.3051 2.45661L39.4135 14.9733ZM39.0635 15.3899V40.5983C39.0635 40.6399 39.0885 40.6733 39.1218 40.6899L60.9468 53.1733V28.1149L39.0635 15.3899ZM61.4718 28.2399V53.3399L83.5884 40.6899C83.6218 40.6733 83.6385 40.6399 83.6385 40.6066V15.3899L61.6718 28.1649C61.6135 28.2066 61.5468 28.2316 61.4718 28.2399ZM61.3551 53.9233C61.2468 53.9233 61.1385 53.8899 61.0385 53.8399L38.8551 41.1483C38.6551 41.0399 38.5385 40.8316 38.5385 40.5983V15.2316C38.5385 14.9983 38.6551 14.7899 38.8551 14.6816L61.0385 1.98994C61.2385 1.88161 61.4801 1.88161 61.6718 1.98994L83.8551 14.6816C84.0551 14.7899 84.1718 15.0066 84.1718 15.2316V40.6066C84.1718 40.8316 84.0551 41.0399 83.8551 41.1483L61.6718 53.8399C61.5718 53.8899 61.4635 53.9233 61.3551 53.9233Z" fill="#E4E1DD"/>
<path d="M16.0248 53.0063L39.1314 66.443V92.4763L16.0248 79.3805V53.0063Z" fill="#F1EFEC"/>
<path d="M61.3857 53.3462L38.7057 66.4712L16.2773 53.0962L39.054 40.5962L61.3857 53.3462Z" fill="white"/>
<path d="M61.4564 53.2563L38.8364 66.4713V92.478L61.4581 79.5797L61.4564 53.2563Z" fill="#E4E1DD"/>
<path d="M16.889 53.3988L38.7807 66.1321C38.8057 66.1488 38.8474 66.1488 38.8807 66.1321L60.7724 53.3988L38.8807 40.8821C38.8474 40.8655 38.814 40.8655 38.7807 40.8821L16.889 53.3988ZM16.539 53.8155V79.0238C16.539 79.0655 16.564 79.0988 16.5974 79.1155L38.4224 91.5988V66.5405L16.539 53.8155ZM38.9474 66.6655V91.7655L61.064 79.1155C61.0974 79.0988 61.114 79.0655 61.114 79.0321V53.8155L39.1474 66.5905C39.089 66.6321 39.0224 66.6571 38.9474 66.6655ZM38.8307 92.3488C38.7224 92.3488 38.614 92.3155 38.514 92.2655L16.3307 79.5738C16.1307 79.4655 16.014 79.2571 16.014 79.0238V53.6571C16.014 53.4238 16.1307 53.2155 16.3307 53.1071L38.514 40.4155C38.714 40.3071 38.9557 40.3071 39.1474 40.4155L61.3307 53.1071C61.5307 53.2155 61.6474 53.4321 61.6474 53.6571V79.0321C61.6474 79.2571 61.5307 79.4655 61.3307 79.5738L39.1474 92.2655C39.0474 92.3155 38.939 92.3488 38.8307 92.3488Z" fill="#E4E1DD"/>
</g>
<defs>
<clipPath id="clip0_821_31871">
<rect width="100" height="92" fill="white"/>
</clipPath>
</defs>
</svg>
