<svg width="360" height="281" viewBox="0 0 360 281" fill="none" xmlns="http://www.w3.org/2000/svg">
<g clip-path="url(#clip0_849_33328)">
<g filter="url(#filter0_di_849_33328)">
<path d="M20 240C31.046 240 40 248.954 40 260C40 271.046 31.046 280 20 280C8.954 280 0 271.046 0 260C0 248.954 8.954 240 20 240ZM60 240C71.046 240 80 248.954 80 260C80 271.046 71.046 280 60 280C48.954 280 40 271.046 40 260C40 248.954 48.954 240 60 240ZM100 240C111.046 240 120 248.954 120 260C120 271.046 111.046 280 100 280C88.954 280 80 271.046 80 260C80 248.954 88.954 240 100 240ZM140 240C151.046 240 160 248.954 160 260C160 271.046 151.046 280 140 280C128.954 280 120 271.046 120 260C120 248.954 128.954 240 140 240ZM180 240C191.046 240 200 248.954 200 260C200 271.046 191.046 280 180 280C168.954 280 160 271.046 160 260C160 248.954 168.954 240 180 240ZM220 240C231.046 240 240 248.954 240 260C240 271.046 231.046 280 220 280C208.954 280 200 271.046 200 260C200 248.954 208.954 240 220 240ZM260 240C271.046 240 280 248.954 280 260C280 271.046 271.046 280 260 280C248.954 280 240 271.046 240 260C240 248.954 248.954 240 260 240ZM300 240C311.046 240 320 248.954 320 260C320 271.046 311.046 280 300 280C288.954 280 280 271.046 280 260C280 248.954 288.954 240 300 240ZM340 240C351.046 240 360 248.954 360 260C360 271.046 351.046 280 340 280C328.954 280 320 271.046 320 260C320 248.954 328.954 240 340 240ZM340 248C333.373 248 328 253.373 328 260C328 266.627 333.373 272 340 272C346.627 272 352 266.627 352 260C352 253.373 346.627 248 340 248ZM20 248C13.373 248 8 253.373 8 260C8 266.627 13.373 272 20 272C26.627 272 32 266.627 32 260C32 253.373 26.627 248 20 248ZM60 248C53.373 248 48 253.373 48 260C48 266.627 53.373 272 60 272C66.627 272 72 266.627 72 260C72 253.373 66.627 248 60 248ZM100 248C93.373 248 88 253.373 88 260C88 266.627 93.373 272 100 272C106.627 272 112 266.627 112 260C112 253.373 106.627 248 100 248ZM140 248C133.373 248 128 253.373 128 260C128 266.627 133.373 272 140 272C146.627 272 152 266.627 152 260C152 253.373 146.627 248 140 248ZM180 248C173.373 248 168 253.373 168 260C168 266.627 173.373 272 180 272C186.627 272 192 266.627 192 260C192 253.373 186.627 248 180 248ZM220 248C213.373 248 208 253.373 208 260C208 266.627 213.373 272 220 272C226.627 272 232 266.627 232 260C232 253.373 226.627 248 220 248ZM260 248C253.373 248 248 253.373 248 260C248 266.627 253.373 272 260 272C266.627 272 272 266.627 272 260C272 253.373 266.627 248 260 248ZM300 248C293.373 248 288 253.373 288 260C288 266.627 293.373 272 300 272C306.627 272 312 266.627 312 260C312 253.373 306.627 248 300 248ZM20 200C31.046 200 40 208.954 40 220C40 231.046 31.046 240 20 240C8.954 240 0 231.046 0 220C0 208.954 8.954 200 20 200ZM60 200C71.046 200 80 208.954 80 220C80 231.046 71.046 240 60 240C48.954 240 40 231.046 40 220C40 208.954 48.954 200 60 200ZM100 200C111.046 200 120 208.954 120 220C120 231.046 111.046 240 100 240C88.954 240 80 231.046 80 220C80 208.954 88.954 200 100 200ZM140 200C151.046 200 160 208.954 160 220C160 231.046 151.046 240 140 240C128.954 240 120 231.046 120 220C120 208.954 128.954 200 140 200ZM180 200C191.046 200 200 208.954 200 220C200 231.046 191.046 240 180 240C168.954 240 160 231.046 160 220C160 208.954 168.954 200 180 200ZM220 200C231.046 200 240 208.954 240 220C240 231.046 231.046 240 220 240C208.954 240 200 231.046 200 220C200 208.954 208.954 200 220 200ZM260 200C271.046 200 280 208.954 280 220C280 231.046 271.046 240 260 240C248.954 240 240 231.046 240 220C240 208.954 248.954 200 260 200ZM300 200C311.046 200 320 208.954 320 220C320 231.046 311.046 240 300 240C288.954 240 280 231.046 280 220C280 208.954 288.954 200 300 200ZM340 200C351.046 200 360 208.954 360 220C360 231.046 351.046 240 340 240C328.954 240 320 231.046 320 220C320 208.954 328.954 200 340 200ZM20 208C13.373 208 8 213.373 8 220C8 226.627 13.373 232 20 232C26.627 232 32 226.627 32 220C32 213.373 26.627 208 20 208ZM60 208C53.373 208 48 213.373 48 220C48 226.627 53.373 232 60 232C66.627 232 72 226.627 72 220C72 213.373 66.627 208 60 208ZM100 208C93.373 208 88 213.373 88 220C88 226.627 93.373 232 100 232C106.627 232 112 226.627 112 220C112 213.373 106.627 208 100 208ZM140 208C133.373 208 128 213.373 128 220C128 226.627 133.373 232 140 232C146.627 232 152 226.627 152 220C152 213.373 146.627 208 140 208ZM180 208C173.373 208 168 213.373 168 220C168 226.627 173.373 232 180 232C186.627 232 192 226.627 192 220C192 213.373 186.627 208 180 208ZM220 208C213.373 208 208 213.373 208 220C208 226.627 213.373 232 220 232C226.627 232 232 226.627 232 220C232 213.373 226.627 208 220 208ZM260 208C253.373 208 248 213.373 248 220C248 226.627 253.373 232 260 232C266.627 232 272 226.627 272 220C272 213.373 266.627 208 260 208ZM300 208C293.373 208 288 213.373 288 220C288 226.627 293.373 232 300 232C306.627 232 312 226.627 312 220C312 213.373 306.627 208 300 208ZM340 208C333.373 208 328 213.373 328 220C328 226.627 333.373 232 340 232C346.627 232 352 226.627 352 220C352 213.373 346.627 208 340 208ZM20 160C31.046 160 40 168.954 40 180C40 191.046 31.046 200 20 200C8.954 200 0 191.046 0 180C0 168.954 8.954 160 20 160ZM60 160C71.046 160 80 168.954 80 180C80 191.046 71.046 200 60 200C48.954 200 40 191.046 40 180C40 168.954 48.954 160 60 160ZM100 160C111.046 160 120 168.954 120 180C120 191.046 111.046 200 100 200C88.954 200 80 191.046 80 180C80 168.954 88.954 160 100 160ZM140 160C151.046 160 160 168.954 160 180C160 191.046 151.046 200 140 200C128.954 200 120 191.046 120 180C120 168.954 128.954 160 140 160ZM180 160C191.046 160 200 168.954 200 180C200 191.046 191.046 200 180 200C168.954 200 160 191.046 160 180C160 168.954 168.954 160 180 160ZM220 160C231.046 160 240 168.954 240 180C240 191.046 231.046 200 220 200C208.954 200 200 191.046 200 180C200 168.954 208.954 160 220 160ZM260 160C271.046 160 280 168.954 280 180C280 191.046 271.046 200 260 200C248.954 200 240 191.046 240 180C240 168.954 248.954 160 260 160ZM300 160C311.046 160 320 168.954 320 180C320 191.046 311.046 200 300 200C288.954 200 280 191.046 280 180C280 168.954 288.954 160 300 160ZM340 160C351.046 160 360 168.954 360 180C360 191.046 351.046 200 340 200C328.954 200 320 191.046 320 180C320 168.954 328.954 160 340 160ZM20 168C13.373 168 8 173.373 8 180C8 186.627 13.373 192 20 192C26.627 192 32 186.627 32 180C32 173.373 26.627 168 20 168ZM60 168C53.373 168 48 173.373 48 180C48 186.627 53.373 192 60 192C66.627 192 72 186.627 72 180C72 173.373 66.627 168 60 168ZM100 168C93.373 168 88 173.373 88 180C88 186.627 93.373 192 100 192C106.627 192 112 186.627 112 180C112 173.373 106.627 168 100 168ZM140 168C133.373 168 128 173.373 128 180C128 186.627 133.373 192 140 192C146.627 192 152 186.627 152 180C152 173.373 146.627 168 140 168ZM180 168C173.373 168 168 173.373 168 180C168 186.627 173.373 192 180 192C186.627 192 192 186.627 192 180C192 173.373 186.627 168 180 168ZM220 168C213.373 168 208 173.373 208 180C208 186.627 213.373 192 220 192C226.627 192 232 186.627 232 180C232 173.373 226.627 168 220 168ZM260 168C253.373 168 248 173.373 248 180C248 186.627 253.373 192 260 192C266.627 192 272 186.627 272 180C272 173.373 266.627 168 260 168ZM300 168C293.373 168 288 173.373 288 180C288 186.627 293.373 192 300 192C306.627 192 312 186.627 312 180C312 173.373 306.627 168 300 168ZM340 168C333.373 168 328 173.373 328 180C328 186.627 333.373 192 340 192C346.627 192 352 186.627 352 180C352 173.373 346.627 168 340 168ZM20 120C31.046 120 40 128.954 40 140C40 151.046 31.046 160 20 160C8.954 160 0 151.046 0 140C0 128.954 8.954 120 20 120ZM60 120C71.046 120 80 128.954 80 140C80 151.046 71.046 160 60 160C48.954 160 40 151.046 40 140C40 128.954 48.954 120 60 120ZM100 120C111.046 120 120 128.954 120 140C120 151.046 111.046 160 100 160C88.954 160 80 151.046 80 140C80 128.954 88.954 120 100 120ZM140 120C151.046 120 160 128.954 160 140C160 151.046 151.046 160 140 160C128.954 160 120 151.046 120 140C120 128.954 128.954 120 140 120ZM180 120C191.046 120 200 128.954 200 140C200 151.046 191.046 160 180 160C168.954 160 160 151.046 160 140C160 128.954 168.954 120 180 120ZM220 120C231.046 120 240 128.954 240 140C240 151.046 231.046 160 220 160C208.954 160 200 151.046 200 140C200 128.954 208.954 120 220 120ZM260 120C271.046 120 280 128.954 280 140C280 151.046 271.046 160 260 160C248.954 160 240 151.046 240 140C240 128.954 248.954 120 260 120ZM300 120C311.046 120 320 128.954 320 140C320 151.046 311.046 160 300 160C288.954 160 280 151.046 280 140C280 128.954 288.954 120 300 120ZM340 120C351.046 120 360 128.954 360 140C360 151.046 351.046 160 340 160C328.954 160 320 151.046 320 140C320 128.954 328.954 120 340 120ZM20 128C13.373 128 8 133.373 8 140C8 146.627 13.373 152 20 152C26.627 152 32 146.627 32 140C32 133.373 26.627 128 20 128ZM60 128C53.373 128 48 133.373 48 140C48 146.627 53.373 152 60 152C66.627 152 72 146.627 72 140C72 133.373 66.627 128 60 128ZM100 128C93.373 128 88 133.373 88 140C88 146.627 93.373 152 100 152C106.627 152 112 146.627 112 140C112 133.373 106.627 128 100 128ZM140 128C133.373 128 128 133.373 128 140C128 146.627 133.373 152 140 152C146.627 152 152 146.627 152 140C152 133.373 146.627 128 140 128ZM180 128C173.373 128 168 133.373 168 140C168 146.627 173.373 152 180 152C186.627 152 192 146.627 192 140C192 133.373 186.627 128 180 128ZM220 128C213.373 128 208 133.373 208 140C208 146.627 213.373 152 220 152C226.627 152 232 146.627 232 140C232 133.373 226.627 128 220 128ZM260 128C253.373 128 248 133.373 248 140C248 146.627 253.373 152 260 152C266.627 152 272 146.627 272 140C272 133.373 266.627 128 260 128ZM300 128C293.373 128 288 133.373 288 140C288 146.627 293.373 152 300 152C306.627 152 312 146.627 312 140C312 133.373 306.627 128 300 128ZM340 128C333.373 128 328 133.373 328 140C328 146.627 333.373 152 340 152C346.627 152 352 146.627 352 140C352 133.373 346.627 128 340 128ZM20 80C31.046 80 40 88.954 40 100C40 111.046 31.046 120 20 120C8.954 120 0 111.046 0 100C0 88.954 8.954 80 20 80ZM60 80C71.046 80 80 88.954 80 100C80 111.046 71.046 120 60 120C48.954 120 40 111.046 40 100C40 88.954 48.954 80 60 80ZM100 80C111.046 80 120 88.954 120 100C120 111.046 111.046 120 100 120C88.954 120 80 111.046 80 100C80 88.954 88.954 80 100 80ZM140 80C151.046 80 160 88.954 160 100C160 111.046 151.046 120 140 120C128.954 120 120 111.046 120 100C120 88.954 128.954 80 140 80ZM180 80C191.046 80 200 88.954 200 100C200 111.046 191.046 120 180 120C168.954 120 160 111.046 160 100C160 88.954 168.954 80 180 80ZM220 80C231.046 80 240 88.954 240 100C240 111.046 231.046 120 220 120C208.954 120 200 111.046 200 100C200 88.954 208.954 80 220 80ZM260 80C271.046 80 280 88.954 280 100C280 111.046 271.046 120 260 120C248.954 120 240 111.046 240 100C240 88.954 248.954 80 260 80ZM300 80C311.046 80 320 88.954 320 100C320 111.046 311.046 120 300 120C288.954 120 280 111.046 280 100C280 88.954 288.954 80 300 80ZM340 80C351.046 80 360 88.954 360 100C360 111.046 351.046 120 340 120C328.954 120 320 111.046 320 100C320 88.954 328.954 80 340 80ZM20 88C13.373 88 8 93.373 8 100C8 106.627 13.373 112 20 112C26.627 112 32 106.627 32 100C32 93.373 26.627 88 20 88ZM60 88C53.373 88 48 93.373 48 100C48 106.627 53.373 112 60 112C66.627 112 72 106.627 72 100C72 93.373 66.627 88 60 88ZM100 88C93.373 88 88 93.373 88 100C88 106.627 93.373 112 100 112C106.627 112 112 106.627 112 100C112 93.373 106.627 88 100 88ZM140 88C133.373 88 128 93.373 128 100C128 106.627 133.373 112 140 112C146.627 112 152 106.627 152 100C152 93.373 146.627 88 140 88ZM180 88C173.373 88 168 93.373 168 100C168 106.627 173.373 112 180 112C186.627 112 192 106.627 192 100C192 93.373 186.627 88 180 88ZM220 88C213.373 88 208 93.373 208 100C208 106.627 213.373 112 220 112C226.627 112 232 106.627 232 100C232 93.373 226.627 88 220 88ZM260 88C253.373 88 248 93.373 248 100C248 106.627 253.373 112 260 112C266.627 112 272 106.627 272 100C272 93.373 266.627 88 260 88ZM300 88C293.373 88 288 93.373 288 100C288 106.627 293.373 112 300 112C306.627 112 312 106.627 312 100C312 93.373 306.627 88 300 88ZM340 88C333.373 88 328 93.373 328 100C328 106.627 333.373 112 340 112C346.627 112 352 106.627 352 100C352 93.373 346.627 88 340 88ZM20 40C31.046 40 40 48.954 40 60C40 71.046 31.046 80 20 80C8.954 80 0 71.046 0 60C0 48.954 8.954 40 20 40ZM60 40C71.046 40 80 48.954 80 60C80 71.046 71.046 80 60 80C48.954 80 40 71.046 40 60C40 48.954 48.954 40 60 40ZM100 40C111.046 40 120 48.954 120 60C120 71.046 111.046 80 100 80C88.954 80 80 71.046 80 60C80 48.954 88.954 40 100 40ZM140 40C151.046 40 160 48.954 160 60C160 71.046 151.046 80 140 80C128.954 80 120 71.046 120 60C120 48.954 128.954 40 140 40ZM180 40C191.046 40 200 48.954 200 60C200 71.046 191.046 80 180 80C168.954 80 160 71.046 160 60C160 48.954 168.954 40 180 40ZM220 40C231.046 40 240 48.954 240 60C240 71.046 231.046 80 220 80C208.954 80 200 71.046 200 60C200 48.954 208.954 40 220 40ZM260 40C271.046 40 280 48.954 280 60C280 71.046 271.046 80 260 80C248.954 80 240 71.046 240 60C240 48.954 248.954 40 260 40ZM300 40C311.046 40 320 48.954 320 60C320 71.046 311.046 80 300 80C288.954 80 280 71.046 280 60C280 48.954 288.954 40 300 40ZM340 40C351.046 40 360 48.954 360 60C360 71.046 351.046 80 340 80C328.954 80 320 71.046 320 60C320 48.954 328.954 40 340 40ZM20 48C13.373 48 8 53.373 8 60C8 66.627 13.373 72 20 72C26.627 72 32 66.627 32 60C32 53.373 26.627 48 20 48ZM60 48C53.373 48 48 53.373 48 60C48 66.627 53.373 72 60 72C66.627 72 72 66.627 72 60C72 53.373 66.627 48 60 48ZM100 48C93.373 48 88 53.373 88 60C88 66.627 93.373 72 100 72C106.627 72 112 66.627 112 60C112 53.373 106.627 48 100 48ZM140 48C133.373 48 128 53.373 128 60C128 66.627 133.373 72 140 72C146.627 72 152 66.627 152 60C152 53.373 146.627 48 140 48ZM180 48C173.373 48 168 53.373 168 60C168 66.627 173.373 72 180 72C186.627 72 192 66.627 192 60C192 53.373 186.627 48 180 48ZM220 48C213.373 48 208 53.373 208 60C208 66.627 213.373 72 220 72C226.627 72 232 66.627 232 60C232 53.373 226.627 48 220 48ZM260 48C253.373 48 248 53.373 248 60C248 66.627 253.373 72 260 72C266.627 72 272 66.627 272 60C272 53.373 266.627 48 260 48ZM300 48C293.373 48 288 53.373 288 60C288 66.627 293.373 72 300 72C306.627 72 312 66.627 312 60C312 53.373 306.627 48 300 48ZM340 48C333.373 48 328 53.373 328 60C328 66.627 333.373 72 340 72C346.627 72 352 66.627 352 60C352 53.373 346.627 48 340 48ZM20 0C31.046 0 40 8.954 40 20C40 31.046 31.046 40 20 40C8.954 40 0 31.046 0 20C0 8.954 8.954 0 20 0ZM60 0C71.046 0 80 8.954 80 20C80 31.046 71.046 40 60 40C48.954 40 40 31.046 40 20C40 8.954 48.954 0 60 0ZM100 0C111.046 0 120 8.954 120 20C120 31.046 111.046 40 100 40C88.954 40 80 31.046 80 20C80 8.954 88.954 0 100 0ZM140 0C151.046 0 160 8.954 160 20C160 31.046 151.046 40 140 40C128.954 40 120 31.046 120 20C120 8.954 128.954 0 140 0ZM180 0C191.046 0 200 8.954 200 20C200 31.046 191.046 40 180 40C168.954 40 160 31.046 160 20C160 8.954 168.954 0 180 0ZM220 0C231.046 0 240 8.954 240 20C240 31.046 231.046 40 220 40C208.954 40 200 31.046 200 20C200 8.954 208.954 0 220 0ZM260 0C271.046 0 280 8.954 280 20C280 31.046 271.046 40 260 40C248.954 40 240 31.046 240 20C240 8.954 248.954 0 260 0ZM300 0C311.046 0 320 8.954 320 20C320 31.046 311.046 40 300 40C288.954 40 280 31.046 280 20C280 8.954 288.954 0 300 0ZM340 0C351.046 0 360 8.954 360 20C360 31.046 351.046 40 340 40C328.954 40 320 31.046 320 20C320 8.954 328.954 0 340 0ZM20 8C13.373 8 8 13.373 8 20C8 26.627 13.373 32 20 32C26.627 32 32 26.627 32 20C32 13.373 26.627 8 20 8ZM60 8C53.373 8 48 13.373 48 20C48 26.627 53.373 32 60 32C66.627 32 72 26.627 72 20C72 13.373 66.627 8 60 8ZM100 8C93.373 8 88 13.373 88 20C88 26.627 93.373 32 100 32C106.627 32 112 26.627 112 20C112 13.373 106.627 8 100 8ZM140 8C133.373 8 128 13.373 128 20C128 26.627 133.373 32 140 32C146.627 32 152 26.627 152 20C152 13.373 146.627 8 140 8ZM180 8C173.373 8 168 13.373 168 20C168 26.627 173.373 32 180 32C186.627 32 192 26.627 192 20C192 13.373 186.627 8 180 8ZM220 8C213.373 8 208 13.373 208 20C208 26.627 213.373 32 220 32C226.627 32 232 26.627 232 20C232 13.373 226.627 8 220 8ZM260 8C253.373 8 248 13.373 248 20C248 26.627 253.373 32 260 32C266.627 32 272 26.627 272 20C272 13.373 266.627 8 260 8ZM300 8C293.373 8 288 13.373 288 20C288 26.627 293.373 32 300 32C306.627 32 312 26.627 312 20C312 13.373 306.627 8 300 8ZM340 8C333.373 8 328 13.373 328 20C328 26.627 333.373 32 340 32C346.627 32 352 26.627 352 20C352 13.373 346.627 8 340 8Z" fill="white" fill-opacity="0.01"/>
</g>
</g>
<defs>
<filter id="filter0_di_849_33328" x="0" y="0" width="360" height="281" filterUnits="userSpaceOnUse" color-interpolation-filters="sRGB">
<feFlood flood-opacity="0" result="BackgroundImageFix"/>
<feColorMatrix in="SourceAlpha" type="matrix" values="0 0 0 0 0 0 0 0 0 0 0 0 0 0 0 0 0 0 127 0" result="hardAlpha"/>
<feOffset dy="1"/>
<feComposite in2="hardAlpha" operator="out"/>
<feColorMatrix type="matrix" values="0 0 0 0 1 0 0 0 0 1 0 0 0 0 1 0 0 0 0.25 0"/>
<feBlend mode="normal" in2="BackgroundImageFix" result="effect1_dropShadow_849_33328"/>
<feBlend mode="normal" in="SourceGraphic" in2="effect1_dropShadow_849_33328" result="shape"/>
<feColorMatrix in="SourceAlpha" type="matrix" values="0 0 0 0 0 0 0 0 0 0 0 0 0 0 0 0 0 0 127 0" result="hardAlpha"/>
<feOffset dy="1"/>
<feGaussianBlur stdDeviation="0.5"/>
<feComposite in2="hardAlpha" operator="arithmetic" k2="-1" k3="1"/>
<feColorMatrix type="matrix" values="0 0 0 0 1 0 0 0 0 0.454902 0 0 0 0 0.0666667 0 0 0 0.3 0"/>
<feBlend mode="normal" in2="shape" result="effect2_innerShadow_849_33328"/>
</filter>
<clipPath id="clip0_849_33328">
<rect width="360" height="281" fill="white"/>
</clipPath>
</defs>
</svg>
