<svg width="360" height="283" viewBox="0 0 360 283" fill="none" xmlns="http://www.w3.org/2000/svg">
<g clip-path="url(#clip0_849_33332)">
<g filter="url(#filter0_di_849_33332)">
<path d="M166.496 141.207L25.703 282H23.125L23 281.875L163.668 141.207L23 0.54L23.54 0H25.288L166.496 141.207ZM307.288 282H304.459L180.207 157.747L55.955 282H53.125L180.207 154.919L307.288 282ZM277.288 282H274.459L180.207 187.747L85.955 282H83.125L180.207 184.919L277.288 282ZM247.288 282H244.46L180.207 217.747L115.954 282H113.126L180.207 214.919L247.288 282ZM217.288 282H214.46L180.207 247.747L145.954 282H143.126L180.207 244.919L217.288 282ZM187.288 282H184.46L180.207 277.747L175.954 282H173.126L180.207 274.919L187.288 282ZM337.414 0.54L196.747 141.207L337.414 281.875L337.289 282H334.711L193.919 141.207L335.126 0H336.874L337.414 0.54ZM136.496 141.207L0 277.703V274.875L133.668 141.207L0 7.539V4.711L136.496 141.207ZM360 7.954L226.747 141.207L360 274.46V277.288L223.919 141.207L360 5.126V7.954ZM106.496 141.207L0 247.703V244.875L103.668 141.207L0 37.539V34.711L106.496 141.207ZM360 37.954L256.747 141.207L360 244.46V247.288L253.919 141.207L360 35.126V37.954ZM76.496 141.207L0 217.703V214.875L73.668 141.207L0 67.539V64.711L76.496 141.207ZM360 67.954L286.747 141.207L360 214.46V217.288L283.919 141.207L360 65.126V67.954ZM46.496 141.207L0 187.703V184.875L43.668 141.207L0 97.539V94.711L46.496 141.207ZM360 97.954L316.747 141.207L360 184.46V187.288L313.919 141.207L360 95.126V97.954ZM16.496 141.207L0 157.703V154.875L13.668 141.207L0 127.539V124.711L16.496 141.207ZM360 127.954L346.747 141.207L360 154.46V157.288L343.919 141.207L360 125.126V127.954ZM180.207 127.496L52.71 0H55.54L180.207 124.668L304.875 0H307.703L180.207 127.496ZM180.207 97.496L82.71 0H85.54L180.207 94.668L274.875 0H277.703L180.207 97.496ZM180.207 67.496L112.711 0H115.539L180.207 64.668L244.875 0H247.703L180.207 67.496ZM180.207 37.496L142.711 0H145.539L180.207 34.668L214.875 0H217.703L180.207 37.496ZM180.207 7.496L172.711 0H175.539L180.207 4.668L184.875 0H187.703L180.207 7.496Z" fill="white" fill-opacity="0.01"/>
</g>
</g>
<defs>
<filter id="filter0_di_849_33332" x="0" y="0" width="360" height="283" filterUnits="userSpaceOnUse" color-interpolation-filters="sRGB">
<feFlood flood-opacity="0" result="BackgroundImageFix"/>
<feColorMatrix in="SourceAlpha" type="matrix" values="0 0 0 0 0 0 0 0 0 0 0 0 0 0 0 0 0 0 127 0" result="hardAlpha"/>
<feOffset dy="1"/>
<feComposite in2="hardAlpha" operator="out"/>
<feColorMatrix type="matrix" values="0 0 0 0 1 0 0 0 0 1 0 0 0 0 1 0 0 0 0.25 0"/>
<feBlend mode="normal" in2="BackgroundImageFix" result="effect1_dropShadow_849_33332"/>
<feBlend mode="normal" in="SourceGraphic" in2="effect1_dropShadow_849_33332" result="shape"/>
<feColorMatrix in="SourceAlpha" type="matrix" values="0 0 0 0 0 0 0 0 0 0 0 0 0 0 0 0 0 0 127 0" result="hardAlpha"/>
<feOffset dy="1"/>
<feGaussianBlur stdDeviation="0.5"/>
<feComposite in2="hardAlpha" operator="arithmetic" k2="-1" k3="1"/>
<feColorMatrix type="matrix" values="0 0 0 0 1 0 0 0 0 0.454902 0 0 0 0 0.0666667 0 0 0 0.3 0"/>
<feBlend mode="normal" in2="shape" result="effect2_innerShadow_849_33332"/>
</filter>
<clipPath id="clip0_849_33332">
<rect width="360" height="283" fill="white"/>
</clipPath>
</defs>
</svg>
